<mxfile host="www.draw.io" modified="2020-01-14T06:35:45.963Z" agent="Mozilla/5.0 (X11; Linux x86_64) AppleWebKit/537.36 (KHTML, like Gecko) Chrome/73.0.3683.86 Safari/537.36" etag="w399if7aSi4DFBNlfnEb" version="12.5.1" type="github">
  <diagram id="C5RBs43oDa-KdzZeNtuy" name="Page-1">
    <mxGraphModel dx="1424" dy="612" grid="1" gridSize="10" guides="1" tooltips="1" connect="1" arrows="1" fold="1" page="0" pageScale="1" pageWidth="827" pageHeight="1169" math="0" shadow="0">
      <root>
        <mxCell id="WIyWlLk6GJQsqaUBKTNV-0"/>
        <mxCell id="WIyWlLk6GJQsqaUBKTNV-1" parent="WIyWlLk6GJQsqaUBKTNV-0"/>
        <mxCell id="x9i2Ew7nr8Oet3fRfoYk-3" value="" style="edgeStyle=orthogonalEdgeStyle;rounded=0;orthogonalLoop=1;jettySize=auto;html=1;" edge="1" parent="WIyWlLk6GJQsqaUBKTNV-1" source="x9i2Ew7nr8Oet3fRfoYk-1" target="x9i2Ew7nr8Oet3fRfoYk-2">
          <mxGeometry relative="1" as="geometry"/>
        </mxCell>
        <mxCell id="x9i2Ew7nr8Oet3fRfoYk-1" value="服务启动" style="rounded=1;whiteSpace=wrap;html=1;fontSize=12;glass=0;strokeWidth=1;shadow=0;" vertex="1" parent="WIyWlLk6GJQsqaUBKTNV-1">
          <mxGeometry x="-390" y="65" width="120" height="40" as="geometry"/>
        </mxCell>
        <mxCell id="x9i2Ew7nr8Oet3fRfoYk-5" value="" style="edgeStyle=orthogonalEdgeStyle;rounded=0;orthogonalLoop=1;jettySize=auto;html=1;" edge="1" parent="WIyWlLk6GJQsqaUBKTNV-1" source="x9i2Ew7nr8Oet3fRfoYk-2" target="x9i2Ew7nr8Oet3fRfoYk-4">
          <mxGeometry relative="1" as="geometry"/>
        </mxCell>
        <mxCell id="x9i2Ew7nr8Oet3fRfoYk-2" value="首次加载模型" style="rounded=1;whiteSpace=wrap;html=1;fontSize=12;glass=0;strokeWidth=1;shadow=0;" vertex="1" parent="WIyWlLk6GJQsqaUBKTNV-1">
          <mxGeometry x="-390" y="135" width="120" height="40" as="geometry"/>
        </mxCell>
        <mxCell id="x9i2Ew7nr8Oet3fRfoYk-7" value="" style="edgeStyle=orthogonalEdgeStyle;rounded=0;orthogonalLoop=1;jettySize=auto;html=1;" edge="1" parent="WIyWlLk6GJQsqaUBKTNV-1" source="x9i2Ew7nr8Oet3fRfoYk-4" target="x9i2Ew7nr8Oet3fRfoYk-6">
          <mxGeometry relative="1" as="geometry"/>
        </mxCell>
        <mxCell id="x9i2Ew7nr8Oet3fRfoYk-4" value="首次加载数据" style="rounded=1;whiteSpace=wrap;html=1;fontSize=12;glass=0;strokeWidth=1;shadow=0;" vertex="1" parent="WIyWlLk6GJQsqaUBKTNV-1">
          <mxGeometry x="-390" y="205" width="120" height="40" as="geometry"/>
        </mxCell>
        <mxCell id="x9i2Ew7nr8Oet3fRfoYk-6" value="提供rpc服务" style="rounded=1;whiteSpace=wrap;html=1;fontSize=12;glass=0;strokeWidth=1;shadow=0;" vertex="1" parent="WIyWlLk6GJQsqaUBKTNV-1">
          <mxGeometry x="-390" y="275" width="120" height="40" as="geometry"/>
        </mxCell>
        <mxCell id="x9i2Ew7nr8Oet3fRfoYk-30" style="edgeStyle=orthogonalEdgeStyle;rounded=0;orthogonalLoop=1;jettySize=auto;html=1;exitX=0.5;exitY=1;exitDx=0;exitDy=0;entryX=0.5;entryY=0;entryDx=0;entryDy=0;" edge="1" parent="WIyWlLk6GJQsqaUBKTNV-1" source="x9i2Ew7nr8Oet3fRfoYk-15" target="x9i2Ew7nr8Oet3fRfoYk-17">
          <mxGeometry relative="1" as="geometry"/>
        </mxCell>
        <mxCell id="x9i2Ew7nr8Oet3fRfoYk-15" value="调用推荐接口" style="rounded=1;whiteSpace=wrap;html=1;fontSize=12;glass=0;strokeWidth=1;shadow=0;" vertex="1" parent="WIyWlLk6GJQsqaUBKTNV-1">
          <mxGeometry x="80" y="80" width="120" height="40" as="geometry"/>
        </mxCell>
        <mxCell id="x9i2Ew7nr8Oet3fRfoYk-19" style="edgeStyle=orthogonalEdgeStyle;rounded=0;orthogonalLoop=1;jettySize=auto;html=1;exitX=1;exitY=0.5;exitDx=0;exitDy=0;entryX=0;entryY=0.5;entryDx=0;entryDy=0;" edge="1" parent="WIyWlLk6GJQsqaUBKTNV-1" source="x9i2Ew7nr8Oet3fRfoYk-20" target="x9i2Ew7nr8Oet3fRfoYk-18">
          <mxGeometry relative="1" as="geometry"/>
        </mxCell>
        <mxCell id="x9i2Ew7nr8Oet3fRfoYk-31" style="edgeStyle=orthogonalEdgeStyle;rounded=0;orthogonalLoop=1;jettySize=auto;html=1;exitX=0.5;exitY=1;exitDx=0;exitDy=0;entryX=0.5;entryY=0;entryDx=0;entryDy=0;" edge="1" parent="WIyWlLk6GJQsqaUBKTNV-1" source="x9i2Ew7nr8Oet3fRfoYk-17" target="x9i2Ew7nr8Oet3fRfoYk-24">
          <mxGeometry relative="1" as="geometry"/>
        </mxCell>
        <mxCell id="x9i2Ew7nr8Oet3fRfoYk-17" value="是否加载模型" style="rhombus;whiteSpace=wrap;html=1;" vertex="1" parent="WIyWlLk6GJQsqaUBKTNV-1">
          <mxGeometry x="80" y="145" width="120" height="50" as="geometry"/>
        </mxCell>
        <mxCell id="x9i2Ew7nr8Oet3fRfoYk-18" value="加载模型" style="rounded=1;whiteSpace=wrap;html=1;fontSize=12;glass=0;strokeWidth=1;shadow=0;" vertex="1" parent="WIyWlLk6GJQsqaUBKTNV-1">
          <mxGeometry x="250" y="150" width="120" height="40" as="geometry"/>
        </mxCell>
        <mxCell id="x9i2Ew7nr8Oet3fRfoYk-20" value="N" style="text;html=1;align=center;verticalAlign=middle;resizable=0;points=[];autosize=1;" vertex="1" parent="WIyWlLk6GJQsqaUBKTNV-1">
          <mxGeometry x="210" y="160" width="20" height="20" as="geometry"/>
        </mxCell>
        <mxCell id="x9i2Ew7nr8Oet3fRfoYk-23" style="edgeStyle=orthogonalEdgeStyle;rounded=0;orthogonalLoop=1;jettySize=auto;html=1;exitX=1;exitY=0.5;exitDx=0;exitDy=0;entryX=0;entryY=0.5;entryDx=0;entryDy=0;" edge="1" parent="WIyWlLk6GJQsqaUBKTNV-1" source="x9i2Ew7nr8Oet3fRfoYk-17" target="x9i2Ew7nr8Oet3fRfoYk-20">
          <mxGeometry relative="1" as="geometry">
            <mxPoint x="200" y="170" as="sourcePoint"/>
            <mxPoint x="250" y="170" as="targetPoint"/>
          </mxGeometry>
        </mxCell>
        <mxCell id="x9i2Ew7nr8Oet3fRfoYk-26" style="edgeStyle=orthogonalEdgeStyle;rounded=0;orthogonalLoop=1;jettySize=auto;html=1;exitX=1;exitY=0.5;exitDx=0;exitDy=0;entryX=0;entryY=0.5;entryDx=0;entryDy=0;" edge="1" parent="WIyWlLk6GJQsqaUBKTNV-1" source="x9i2Ew7nr8Oet3fRfoYk-27" target="x9i2Ew7nr8Oet3fRfoYk-25">
          <mxGeometry relative="1" as="geometry"/>
        </mxCell>
        <mxCell id="x9i2Ew7nr8Oet3fRfoYk-34" style="edgeStyle=orthogonalEdgeStyle;rounded=0;orthogonalLoop=1;jettySize=auto;html=1;exitX=0.5;exitY=1;exitDx=0;exitDy=0;entryX=0.5;entryY=0;entryDx=0;entryDy=0;" edge="1" parent="WIyWlLk6GJQsqaUBKTNV-1" source="x9i2Ew7nr8Oet3fRfoYk-24" target="x9i2Ew7nr8Oet3fRfoYk-32">
          <mxGeometry relative="1" as="geometry"/>
        </mxCell>
        <mxCell id="x9i2Ew7nr8Oet3fRfoYk-24" value="是否加载数据" style="rhombus;whiteSpace=wrap;html=1;" vertex="1" parent="WIyWlLk6GJQsqaUBKTNV-1">
          <mxGeometry x="80" y="215" width="120" height="50" as="geometry"/>
        </mxCell>
        <mxCell id="x9i2Ew7nr8Oet3fRfoYk-25" value="加载数据" style="rounded=1;whiteSpace=wrap;html=1;fontSize=12;glass=0;strokeWidth=1;shadow=0;" vertex="1" parent="WIyWlLk6GJQsqaUBKTNV-1">
          <mxGeometry x="250" y="220" width="120" height="40" as="geometry"/>
        </mxCell>
        <mxCell id="x9i2Ew7nr8Oet3fRfoYk-27" value="N" style="text;html=1;align=center;verticalAlign=middle;resizable=0;points=[];autosize=1;" vertex="1" parent="WIyWlLk6GJQsqaUBKTNV-1">
          <mxGeometry x="210" y="230" width="20" height="20" as="geometry"/>
        </mxCell>
        <mxCell id="x9i2Ew7nr8Oet3fRfoYk-28" style="edgeStyle=orthogonalEdgeStyle;rounded=0;orthogonalLoop=1;jettySize=auto;html=1;exitX=1;exitY=0.5;exitDx=0;exitDy=0;entryX=0;entryY=0.5;entryDx=0;entryDy=0;" edge="1" parent="WIyWlLk6GJQsqaUBKTNV-1" source="x9i2Ew7nr8Oet3fRfoYk-24" target="x9i2Ew7nr8Oet3fRfoYk-27">
          <mxGeometry relative="1" as="geometry">
            <mxPoint x="200" y="240" as="sourcePoint"/>
            <mxPoint x="250" y="240" as="targetPoint"/>
          </mxGeometry>
        </mxCell>
        <mxCell id="x9i2Ew7nr8Oet3fRfoYk-35" style="edgeStyle=orthogonalEdgeStyle;rounded=0;orthogonalLoop=1;jettySize=auto;html=1;exitX=1;exitY=0.5;exitDx=0;exitDy=0;entryX=0;entryY=0.5;entryDx=0;entryDy=0;" edge="1" parent="WIyWlLk6GJQsqaUBKTNV-1" source="x9i2Ew7nr8Oet3fRfoYk-36" target="x9i2Ew7nr8Oet3fRfoYk-33">
          <mxGeometry relative="1" as="geometry"/>
        </mxCell>
        <mxCell id="x9i2Ew7nr8Oet3fRfoYk-32" value="是否有缓存队列" style="rhombus;whiteSpace=wrap;html=1;" vertex="1" parent="WIyWlLk6GJQsqaUBKTNV-1">
          <mxGeometry x="80" y="280" width="120" height="50" as="geometry"/>
        </mxCell>
        <mxCell id="x9i2Ew7nr8Oet3fRfoYk-33" value="直接推荐队列数据" style="rounded=1;whiteSpace=wrap;html=1;fontSize=12;glass=0;strokeWidth=1;shadow=0;" vertex="1" parent="WIyWlLk6GJQsqaUBKTNV-1">
          <mxGeometry x="250" y="285" width="120" height="40" as="geometry"/>
        </mxCell>
        <mxCell id="x9i2Ew7nr8Oet3fRfoYk-36" value="Y" style="text;html=1;align=center;verticalAlign=middle;resizable=0;points=[];autosize=1;" vertex="1" parent="WIyWlLk6GJQsqaUBKTNV-1">
          <mxGeometry x="210" y="295" width="20" height="20" as="geometry"/>
        </mxCell>
        <mxCell id="x9i2Ew7nr8Oet3fRfoYk-37" style="edgeStyle=orthogonalEdgeStyle;rounded=0;orthogonalLoop=1;jettySize=auto;html=1;exitX=1;exitY=0.5;exitDx=0;exitDy=0;entryX=0;entryY=0.5;entryDx=0;entryDy=0;" edge="1" parent="WIyWlLk6GJQsqaUBKTNV-1" source="x9i2Ew7nr8Oet3fRfoYk-32" target="x9i2Ew7nr8Oet3fRfoYk-36">
          <mxGeometry relative="1" as="geometry">
            <mxPoint x="200" y="305" as="sourcePoint"/>
            <mxPoint x="250" y="305" as="targetPoint"/>
          </mxGeometry>
        </mxCell>
      </root>
    </mxGraphModel>
  </diagram>
</mxfile>
